<svg xmlns="http://www.w3.org/2000/svg">
	<!-- Support icon -->
	<symbol id="support" viewBox="0 0 50.875 53.13">
		<path opacity="0.34" d="M263.984,1044.59a9.815,9.815,0,1,1-9.8,9.82A9.811,9.811,0,0,1,263.984,1044.59Z" transform="translate(-222.906 -1011.09)" />
		<path d="M268.312,1022.67a0.937,0.937,0,0,0-1.592.99,22.684,22.684,0,0,1-32.86,30.14,0.938,0.938,0,0,0-1.125,1.5A24.559,24.559,0,0,0,268.312,1022.67Zm-23.03,21.94h-7.55l4.743-4.75a12.68,12.68,0,0,0,3.744-9.03,5.844,5.844,0,1,0-11.688,0,0.938,0.938,0,0,0,1.875,0,3.969,3.969,0,1,1,7.938,0,10.836,10.836,0,0,1-3.195,7.71l-6.344,6.34a0.949,0.949,0,0,0-.2,1.03,0.93,0.93,0,0,0,.866.57h9.813A0.935,0.935,0,1,0,245.282,1044.61Zm15.039-6.44h-2.6v-1.52a0.938,0.938,0,0,0-1.875,0v1.52h-5.286l5.286-8.85v4.21a0.938,0.938,0,1,0,1.875,0v-7.62a0.957,0.957,0,0,0-.456-0.8,0.94,0.94,0,0,0-1.286.33l-7.875,13.19a0.933,0.933,0,0,0-.011.94,0.951,0.951,0,0,0,.816.48h6.938v5.5a0.938,0.938,0,0,0,1.875,0v-5.5h2.6A0.94,0.94,0,0,0,260.321,1038.17Zm5.33-22.63a0.938,0.938,0,1,0-1.875.04l0.042,1.75a24.556,24.556,0,0,0-33.549,35.85,0.93,0.93,0,0,0,.656.27,0.92,0.92,0,0,0,.669-0.28,0.942,0.942,0,0,0-.013-1.33,22.679,22.679,0,0,1,15.882-38.87,22.745,22.745,0,0,1,15.107,5.77l-1.843.04a0.935,0.935,0,0,0,.022,1.87h0.023l4.06-.09a0.934,0.934,0,0,0,.915-0.96Z" transform="translate(-222.906 -1011.09)" />
	</symbol>
	<!-- Delivery icon -->
	<symbol id="delivery" viewBox="0 0 55 37">
		<path fill-rule="evenodd" fill="rgb(163, 187, 200)" d="M46.781,17.812 L46.781,19.804 C46.781,20.238 46.429,20.590 45.995,20.590 C45.562,20.590 45.210,20.238 45.210,19.804 L45.210,17.812 C45.210,17.377 45.562,17.025 45.995,17.025 C46.429,17.025 46.781,17.377 46.781,17.812 ZM36.757,14.090 L36.757,6.700 C36.757,6.266 37.108,5.914 37.542,5.914 L41.843,5.914 C44.566,5.914 46.781,8.130 46.781,10.855 L46.781,14.090 C46.781,14.525 46.429,14.877 45.995,14.877 L37.542,14.877 C37.108,14.877 36.757,14.525 36.757,14.090 ZM38.328,13.304 L45.210,13.304 L45.210,10.855 C45.210,8.998 43.700,7.487 41.843,7.487 L38.328,7.487 L38.328,13.304 ZM49.137,25.727 L46.355,25.727 C45.977,28.100 43.918,29.919 41.443,29.919 C38.967,29.919 36.909,28.100 36.531,25.727 L25.279,25.727 C24.902,28.100 22.843,29.919 20.368,29.919 C17.892,29.919 15.834,28.100 15.456,25.727 L13.037,25.727 C12.603,25.727 12.252,25.374 12.252,24.940 L12.252,1.354 C12.252,0.920 12.603,0.568 13.037,0.568 L19.083,0.568 C19.517,0.568 19.869,0.920 19.869,1.354 C19.869,1.788 19.517,2.140 19.083,2.140 L13.822,2.140 L13.822,24.154 L15.456,24.154 C15.834,21.780 17.892,19.961 20.368,19.961 C22.843,19.961 24.902,21.780 25.279,24.154 L33.615,24.154 L33.615,23.029 C33.615,22.595 33.967,22.243 34.400,22.243 C34.834,22.243 35.186,22.595 35.186,23.029 L35.186,24.154 L36.531,24.154 C36.909,21.780 38.967,19.961 41.443,19.961 C43.919,19.961 45.977,21.780 46.355,24.154 L48.352,24.154 L48.352,10.855 C48.352,7.264 45.432,4.342 41.843,4.342 L35.186,4.342 L35.186,19.360 C35.186,19.794 34.834,20.146 34.400,20.146 C33.967,20.146 33.615,19.794 33.615,19.360 L33.615,2.140 L22.225,2.140 C21.791,2.140 21.440,1.788 21.440,1.354 C21.440,0.920 21.791,0.568 22.225,0.568 L34.400,0.568 C34.834,0.568 35.186,0.920 35.186,1.354 L35.186,2.769 L41.843,2.769 C46.298,2.769 49.922,6.397 49.922,10.855 L49.922,24.940 C49.922,25.374 49.571,25.727 49.137,25.727 ZM20.368,21.534 C18.491,21.534 16.964,23.062 16.964,24.940 C16.964,26.819 18.491,28.347 20.368,28.347 C22.244,28.347 23.771,26.819 23.771,24.940 C23.771,23.062 22.244,21.534 20.368,21.534 ZM41.443,21.534 C39.567,21.534 38.040,23.061 38.040,24.940 C38.040,24.940 38.040,24.940 38.040,24.940 C38.040,24.941 38.040,24.941 38.040,24.941 C38.040,26.819 39.567,28.347 41.443,28.347 C43.320,28.347 44.847,26.819 44.847,24.940 C44.847,23.062 43.320,21.534 41.443,21.534 ZM41.443,26.967 C40.327,26.967 39.418,26.058 39.418,24.940 C39.418,23.823 40.327,22.914 41.443,22.914 C42.560,22.914 43.468,23.823 43.468,24.940 C43.468,26.058 42.560,26.967 41.443,26.967 ZM41.443,24.486 C41.193,24.486 40.989,24.689 40.989,24.940 C40.989,25.191 41.193,25.395 41.443,25.395 C41.693,25.395 41.897,25.191 41.897,24.940 C41.897,24.689 41.693,24.486 41.443,24.486 ZM20.368,26.967 C19.251,26.967 18.343,26.058 18.343,24.940 C18.343,23.823 19.251,22.914 20.368,22.914 C21.484,22.914 22.392,23.823 22.392,24.940 C22.392,26.058 21.484,26.967 20.368,26.967 ZM20.368,24.486 C20.117,24.486 19.913,24.689 19.913,24.940 C19.913,25.191 20.117,25.395 20.368,25.395 C20.618,25.395 20.822,25.191 20.822,24.940 C20.822,24.689 20.618,24.486 20.368,24.486 ZM10.340,17.912 L4.738,17.912 C4.304,17.912 3.952,17.560 3.952,17.126 C3.952,16.692 4.304,16.340 4.738,16.340 L10.340,16.340 C10.774,16.340 11.125,16.692 11.125,17.126 C11.125,17.560 10.774,17.912 10.340,17.912 ZM9.816,6.906 L3.690,6.906 C3.257,6.906 2.905,6.554 2.905,6.119 C2.905,5.686 3.257,5.334 3.690,5.334 L9.816,5.334 C10.250,5.334 10.602,5.686 10.602,6.119 C10.602,6.554 10.250,6.906 9.816,6.906 ZM9.031,12.409 C9.031,12.843 8.679,13.195 8.246,13.195 L1.596,13.195 C1.162,13.195 0.811,12.843 0.811,12.409 C0.811,11.975 1.162,11.623 1.596,11.623 L8.246,11.623 C8.679,11.623 9.031,11.975 9.031,12.409 ZM1.596,22.629 L4.983,22.629 C5.417,22.629 5.769,22.981 5.769,23.415 C5.769,23.849 5.417,24.202 4.983,24.202 L1.596,24.202 C1.162,24.202 0.811,23.849 0.811,23.415 C0.811,22.981 1.162,22.629 1.596,22.629 ZM7.602,22.629 L8.246,22.629 C8.679,22.629 9.031,22.981 9.031,23.415 C9.031,23.849 8.679,24.202 8.246,24.202 L7.602,24.202 C7.168,24.202 6.816,23.849 6.816,23.415 C6.816,22.981 7.168,22.629 7.602,22.629 Z" />
		<path fill-rule="evenodd" opacity="0.341" fill="rgb(163, 187, 200)" d="M44.750,17.406 C50.169,17.406 54.562,21.792 54.562,27.203 C54.562,32.614 50.169,37.000 44.750,37.000 C39.331,37.000 34.937,32.614 34.937,27.203 C34.937,21.792 39.331,17.406 44.750,17.406 Z" />
	</symbol>
	<!-- Payment icon -->
	<symbol id="payment" viewBox="0 0 54 53">
		<path fill-rule="evenodd" fill="rgb(163, 187, 200)" d="M40.382,26.240 C39.920,26.240 39.546,25.866 39.546,25.404 L39.546,23.363 C38.246,22.997 37.289,21.801 37.289,20.384 C37.289,18.677 38.677,17.289 40.382,17.289 C42.086,17.289 43.474,18.677 43.474,20.384 C43.474,21.801 42.517,22.997 41.217,23.363 L41.217,25.404 C41.217,25.866 40.843,26.240 40.382,26.240 ZM41.802,20.384 C41.802,19.601 41.165,18.962 40.382,18.962 C39.598,18.962 38.961,19.600 38.961,20.384 C38.961,21.169 39.598,21.806 40.382,21.806 C41.165,21.806 41.802,21.169 41.802,20.384 ZM48.534,22.737 C48.996,22.737 49.370,23.111 49.370,23.573 L49.370,26.759 C49.370,28.438 48.005,29.803 46.328,29.803 L34.434,29.803 C32.757,29.803 31.393,28.438 31.393,26.759 L31.393,16.012 C31.393,14.556 32.420,13.335 33.786,13.037 L33.786,7.021 C33.786,3.380 36.745,0.418 40.381,0.418 C44.018,0.418 46.976,3.380 46.976,7.021 L46.976,13.037 C48.343,13.335 49.370,14.555 49.370,16.011 L49.370,20.784 C49.370,21.246 48.996,21.621 48.534,21.621 C48.073,21.621 47.698,21.246 47.698,20.784 L47.698,16.011 C47.698,15.256 47.084,14.640 46.328,14.640 L34.434,14.640 C33.679,14.640 33.065,15.256 33.065,16.011 L33.065,26.759 C33.065,27.515 33.679,28.130 34.434,28.130 L46.328,28.130 C47.084,28.130 47.698,27.515 47.698,26.759 L47.698,23.573 C47.698,23.111 48.073,22.737 48.534,22.737 ZM35.458,12.967 L45.304,12.967 L45.304,7.021 C45.304,4.302 43.096,2.092 40.381,2.092 C37.666,2.092 35.458,4.302 35.458,7.021 L35.458,12.967 ZM5.711,35.228 L13.896,35.228 C14.357,35.228 14.731,35.603 14.731,36.064 C14.731,36.527 14.357,36.901 13.895,36.901 L5.711,36.901 C5.249,36.901 4.875,36.527 4.875,36.064 C4.875,35.603 5.249,35.228 5.711,35.228 ZM5.711,31.236 L19.982,31.236 C20.443,31.236 20.818,31.611 20.818,32.073 C20.818,32.535 20.443,32.910 19.982,32.910 L5.711,32.910 C5.249,32.910 4.875,32.535 4.875,32.073 C4.875,31.611 5.249,31.236 5.711,31.236 ZM29.220,21.355 L15.004,21.355 C14.543,21.355 14.168,20.980 14.168,20.518 C14.168,20.056 14.543,19.681 15.004,19.681 L29.220,19.681 C29.682,19.681 30.056,20.056 30.056,20.518 C30.056,20.980 29.682,21.355 29.220,21.355 ZM29.220,28.497 L1.929,28.497 L1.929,40.417 C1.929,41.610 2.900,42.582 4.092,42.582 L43.427,42.582 C44.619,42.582 45.589,41.610 45.589,40.417 L45.589,32.151 C45.589,31.690 45.964,31.315 46.425,31.315 C46.887,31.315 47.261,31.690 47.261,32.151 L47.261,40.417 C47.261,42.533 45.541,44.254 43.427,44.254 L4.092,44.254 C1.978,44.254 0.258,42.532 0.258,40.417 L0.258,16.797 C0.258,14.680 1.978,12.959 4.092,12.958 L29.220,12.958 C29.682,12.958 30.056,13.333 30.056,13.794 C30.056,14.256 29.682,14.631 29.220,14.631 L4.092,14.631 C2.900,14.631 1.929,15.603 1.929,16.797 L1.929,19.681 L11.798,19.681 C12.259,19.681 12.634,20.056 12.634,20.518 C12.634,20.980 12.259,21.354 11.798,21.354 L1.929,21.354 L1.929,26.824 L29.220,26.824 C29.682,26.824 30.056,27.199 30.056,27.661 C30.056,28.123 29.682,28.497 29.220,28.497 Z" />
		<path fill-rule="evenodd" opacity="0.341" fill="rgb(163, 187, 200)" d="M44.000,33.062 C49.419,33.062 53.812,37.448 53.812,42.859 C53.812,48.270 49.419,52.656 44.000,52.656 C38.581,52.656 34.187,48.270 34.187,42.859 C34.187,37.448 38.581,33.062 44.000,33.062 Z" />
	</symbol>
	<!-- Button-image search -->
	<symbol id="search" viewbox="0 0 20 20">
		<path d="M759.45,1579.8l-4.588-4.59a8.827,8.827,0,0,1-2.651,2.65l4.588,4.59A1.874,1.874,0,0,0,759.45,1579.8Zm-4.45-9.3a7.5,7.5,0,1,0-7.5,7.5A7.5,7.5,0,0,0,755,1570.5Zm-7.5,5.62a5.625,5.625,0,1,1,5.625-5.62A5.628,5.628,0,0,1,747.5,1576.12Zm-4.375-5.62h1.25a3.135,3.135,0,0,1,3.125-3.13v-1.25A4.386,4.386,0,0,0,743.125,1570.5Z" transform="translate(-740 -1563)" />
	</symbol>
	<!-- Button-image cart -->
	<symbol id="cart" viewbox="0 0 22 20">
		<path d="M800.814,1564.63h2.333l3.323,12.04a0.812,0.812,0,0,0,.787.59h10.214a0.821,0.821,0,0,0,.746-0.48l3.717-8.56a0.836,0.836,0,0,0-.068-0.78,0.813,0.813,0,0,0-.678-0.37H809.9a0.82,0.82,0,0,0,0,1.64H819.94l-3.011,6.92h-9.062l-3.323-12.03a0.808,0.808,0,0,0-.787-0.6h-2.943A0.815,0.815,0,0,0,800.814,1564.63Zm5.67,18.37a1.85,1.85,0,1,0-1.845-1.85A1.85,1.85,0,0,0,806.484,1583Zm11.53,0h0.135A1.907,1.907,0,1,0,818.014,1583Z" transform="translate(-800 -1563)" />
	</symbol>
	<!-- Button-image favorites -->
	<symbol id="favorites" viewbox="0 0 22 18">
		<path d="M882.99,1569.82a6.208,6.208,0,0,0-1.849-4.1A5.871,5.871,0,0,0,877,1564c-2.311,0-3.948,1.78-4.827,2.74a2.156,2.156,0,0,1-.156.17l-0.083-.09c-0.8-.92-2.476-2.82-4.938-2.82a5.873,5.873,0,0,0-4.139,1.72,6.208,6.208,0,0,0-1.849,4.1,6.845,6.845,0,0,0,1.271,4.34,29.307,29.307,0,0,0,4.763,4.75c1.705,1.41,3.95,3.09,4.965,3.09,1.032,0,3.269-1.68,4.965-3.09a29.234,29.234,0,0,0,4.746-4.75A6.935,6.935,0,0,0,882.99,1569.82Zm-2.376,3.61a27,27,0,0,1-4.431,4.42c-2.406,2-3.831,2.79-4.172,2.82-0.342-.03-1.77-0.83-4.188-2.84a26.78,26.78,0,0,1-4.437-4.4,5.6,5.6,0,0,1-1.054-3.54,4.807,4.807,0,0,1,4.666-4.57c1.863,0,3.216,1.54,3.943,2.37a1.52,1.52,0,0,0,1.059.76,1.731,1.731,0,0,0,1.151-.81c0.794-.87,2.122-2.32,3.851-2.32a4.807,4.807,0,0,1,4.666,4.57A5.528,5.528,0,0,1,880.614,1573.43Z" transform="translate(-861 -1564)" />
	</symbol>
	<!-- Right arrow -->
	<symbol id="right-arrow" viewbox="0 0 22 9">
		<path fill-rule="evenodd" d="M603.3,2616.47h16.948l-0.1,2.86a0.279,0.279,0,0,0-.084.2,0.3,0.3,0,0,0,.084.21l0.172,0.17a0.276,0.276,0,0,0,.408,0l4.192-4.21a0.283,0.283,0,0,0,.084-0.2,0.307,0.307,0,0,0-.084-0.21l-4.192-4.21a0.3,0.3,0,0,0-.408,0l-0.172.17a0.3,0.3,0,0,0-.084.21,0.3,0.3,0,0,0,.084.2l0.113,2.86H603.292a0.3,0.3,0,0,0-.292.3v1.37A0.288,0.288,0,0,0,603.3,2616.47Z" transform="translate(-603 -2611)" />
	</symbol>
	<symbol id="right-hooks" viewbox="0 0 6 10">
		<path d="M0.472,9.538 C0.591,9.538 0.710,9.492 0.803,9.398 L5.024,5.133 C5.028,5.128 5.032,5.124 5.037,5.120 C5.077,5.077 5.109,5.028 5.132,4.976 C5.132,4.976 5.132,4.977 5.132,4.975 C5.162,4.907 5.177,4.832 5.177,4.758 C5.177,4.757 5.177,4.757 5.177,4.756 C5.177,4.684 5.162,4.611 5.133,4.545 C5.133,4.544 5.133,4.544 5.133,4.544 C5.133,4.544 5.133,4.544 5.133,4.543 C5.109,4.490 5.077,4.440 5.035,4.396 C5.032,4.391 5.028,4.387 5.024,4.384 L0.803,0.119 C0.609,-0.076 0.306,-0.067 0.123,0.138 C0.035,0.237 -0.008,0.364 -0.008,0.490 C-0.008,0.626 0.042,0.762 0.141,0.862 L3.998,4.758 L0.141,8.655 C0.042,8.755 -0.008,8.891 -0.008,9.026 C-0.008,9.153 0.035,9.280 0.123,9.379 C0.218,9.485 0.345,9.538 0.472,9.538 Z" />
	</symbol>
	<symbol id="facebook" viewbox="0 0 9 16">
		<path fill-rule="evenodd" fill="rgb(161, 161, 161)" d="M6.190,0.125 C6.603,0.125 7.018,0.147 7.430,0.165 C7.698,0.176 7.967,0.215 8.219,0.242 L8.200,2.727 L8.002,2.727 C7.730,2.727 7.457,2.724 7.184,2.724 C6.980,2.724 6.775,2.725 6.571,2.732 C5.912,2.754 5.427,3.001 5.394,3.824 C5.373,4.416 5.358,5.725 5.357,5.793 C5.391,5.793 6.042,5.795 6.697,5.795 C7.024,5.795 7.344,5.795 7.568,5.793 L8.099,5.793 C7.966,6.748 7.844,7.663 7.711,8.585 L5.357,8.585 L5.304,15.556 L2.414,15.556 L2.467,8.574 L0.103,8.574 L0.124,5.798 L2.499,5.798 L2.501,5.590 C2.505,5.031 2.498,4.471 2.519,3.912 C2.527,3.561 2.546,3.199 2.610,2.847 C2.770,1.998 3.164,1.284 3.876,0.774 C4.499,0.330 5.208,0.143 5.960,0.127 C6.036,0.125 6.113,0.125 6.190,0.125 Z" />
	</symbol>
	<symbol id="twiter" viewbox="0 0 15 13">
		<path d="M14.690,2.277 C14.585,2.436 14.480,2.584 14.358,2.727 C14.047,3.111 13.688,3.451 13.286,3.742 L13.236,3.835 C13.249,4.268 13.229,4.702 13.171,5.135 C13.054,6.045 12.790,6.917 12.399,7.746 C11.987,8.601 11.460,9.375 10.797,10.055 C9.669,11.212 8.319,11.959 6.748,12.304 C6.209,12.419 5.666,12.480 5.112,12.496 C5.023,12.498 4.935,12.500 4.847,12.500 C3.259,12.500 1.787,12.076 0.431,11.234 L0.361,11.191 C0.593,11.215 0.822,11.228 1.050,11.228 C1.825,11.228 2.570,11.083 3.298,10.790 C3.799,10.582 4.262,10.318 4.698,9.973 C3.179,9.924 2.233,8.826 1.987,7.938 C2.169,7.973 2.351,7.990 2.532,7.990 C2.769,7.990 3.006,7.961 3.244,7.905 L3.288,7.883 C2.461,7.691 1.828,7.252 1.394,6.539 C1.102,6.067 0.969,5.546 0.973,4.981 C1.388,5.201 1.815,5.321 2.276,5.332 C1.659,4.888 1.247,4.301 1.083,3.555 C0.918,2.809 1.033,2.101 1.417,1.432 C2.988,3.303 4.988,4.329 7.438,4.498 C7.423,4.378 7.407,4.279 7.391,4.175 C7.314,3.484 7.462,2.842 7.839,2.261 C8.311,1.526 8.978,1.070 9.835,0.933 C10.017,0.903 10.195,0.888 10.368,0.888 C11.136,0.888 11.814,1.182 12.396,1.751 C12.432,1.783 12.463,1.801 12.504,1.801 C12.517,1.801 12.532,1.799 12.549,1.794 C13.153,1.668 13.726,1.449 14.260,1.142 L14.298,1.120 C14.085,1.800 13.658,2.326 13.052,2.716 C13.623,2.656 14.162,2.502 14.690,2.277 Z" />
	</symbol>
	<symbol id="instagram" viewbox="0 0 15 14">
		<path d="M13.920,10.779 C13.496,12.337 12.480,13.258 10.904,13.511 C10.315,13.606 8.724,13.663 7.136,13.663 C5.510,13.663 3.886,13.603 3.340,13.461 C1.791,13.061 0.867,12.052 0.621,10.483 C0.437,9.331 0.418,3.978 0.750,2.815 C1.184,1.301 2.195,0.412 3.727,0.160 C4.421,0.046 5.779,0.006 7.150,0.006 C8.425,0.006 9.711,0.041 10.485,0.083 C11.423,0.133 12.281,0.434 12.978,1.104 C13.643,1.740 13.983,2.535 14.068,3.435 C14.170,4.509 14.236,9.589 13.920,10.779 ZM12.839,3.550 C12.717,2.348 11.982,1.559 10.794,1.372 C10.205,1.283 8.788,1.243 7.378,1.243 C6.018,1.243 4.664,1.280 4.069,1.344 C2.878,1.482 2.077,2.217 1.886,3.402 C1.691,4.657 1.693,9.353 1.839,10.297 C1.991,11.278 2.546,11.953 3.525,12.227 C4.055,12.376 5.643,12.429 7.199,12.429 C8.632,12.429 10.039,12.384 10.567,12.326 C11.770,12.194 12.565,11.454 12.755,10.258 C12.951,9.057 12.951,4.674 12.839,3.550 ZM10.982,4.021 C10.527,4.016 10.167,3.648 10.171,3.199 C10.174,2.747 10.539,2.382 10.990,2.382 L10.999,2.382 C11.450,2.382 11.814,2.749 11.811,3.204 C11.807,3.654 11.437,4.021 10.982,4.021 ZM7.292,10.340 C5.355,10.340 3.804,8.771 3.818,6.835 C3.834,4.899 5.414,3.330 7.350,3.336 C9.281,3.336 10.838,4.905 10.823,6.841 C10.809,8.771 9.228,10.340 7.292,10.340 ZM7.357,4.570 L7.337,4.570 C6.096,4.570 5.073,5.569 5.053,6.813 C5.033,8.064 6.028,9.090 7.279,9.100 L7.299,9.101 C8.541,9.101 9.563,8.101 9.584,6.857 C9.604,5.601 8.608,4.581 7.357,4.570 Z" />
	</symbol>
	<symbol id="google" viewbox="0 0 19 12">
		<path d="M18.929,4.964 L18.929,5.019 L18.918,6.461 L18.917,6.521 L18.857,6.521 L16.926,6.521 L16.911,8.452 L16.911,8.507 L16.856,8.507 L15.408,8.507 L15.353,8.507 L15.354,8.452 L15.368,6.521 L13.438,6.521 L13.377,6.521 L13.378,6.461 L13.389,5.019 L13.389,4.964 L13.450,4.964 L15.380,4.964 L15.395,3.028 L15.395,2.973 L15.450,2.973 L16.898,2.973 L16.953,2.973 L16.953,3.028 L16.938,4.964 L18.869,4.964 L18.929,4.964 ZM8.139,11.541 C7.632,11.672 7.117,11.736 6.599,11.736 C6.489,11.736 6.378,11.733 6.267,11.727 C5.149,11.661 4.132,11.310 3.231,10.646 C2.069,9.791 1.338,8.650 1.030,7.240 C0.919,6.730 0.879,6.220 0.922,5.705 C1.002,4.487 1.427,3.395 2.208,2.446 C3.016,1.453 4.046,0.806 5.278,0.494 C5.591,0.411 5.904,0.362 6.222,0.345 C6.403,0.340 6.585,0.329 6.766,0.329 C7.731,0.340 8.634,0.581 9.464,1.069 C10.021,1.388 10.337,1.711 10.473,1.810 C9.904,2.369 9.357,2.918 8.799,3.466 C8.384,3.109 7.926,2.781 7.132,2.660 C6.967,2.636 6.804,2.624 6.645,2.624 C5.051,2.624 3.715,3.777 3.360,5.287 C3.275,5.627 3.251,5.973 3.280,6.319 C3.402,7.723 4.342,8.875 5.611,9.286 C5.935,9.388 6.270,9.436 6.607,9.436 C6.686,9.436 6.765,9.434 6.844,9.429 C7.443,9.390 8.003,9.231 8.510,8.897 C9.365,8.315 9.641,7.405 9.643,7.180 L6.588,7.180 C6.588,7.105 6.599,5.677 6.604,4.980 L6.610,4.887 L11.974,4.887 C12.263,6.560 12.003,8.320 10.961,9.697 C10.241,10.646 9.282,11.244 8.139,11.541 Z" />
	</symbol>
	<symbol id="reply-arrow" viewbox="0 0 15 11">
		<path d="M8.931,11.007 C9.084,11.007 9.236,10.955 9.356,10.846 L14.790,5.934 C14.797,5.929 14.803,5.923 14.809,5.917 C14.820,5.906 14.830,5.896 14.840,5.885 L14.840,5.884 L14.841,5.884 C14.930,5.784 14.977,5.663 14.985,5.540 C14.988,5.496 14.986,5.453 14.979,5.410 C14.961,5.299 14.908,5.192 14.824,5.103 C14.813,5.092 14.802,5.082 14.791,5.072 L9.356,0.160 C9.109,-0.064 8.717,-0.055 8.482,0.182 C8.247,0.419 8.258,0.792 8.506,1.016 L12.817,4.913 L0.631,4.913 C0.290,4.913 0.014,5.177 0.014,5.503 C0.014,5.828 0.290,6.092 0.631,6.092 L12.817,6.092 L8.506,9.990 C8.258,10.213 8.247,10.587 8.482,10.824 C8.604,10.946 8.767,11.007 8.931,11.007 Z" />
	</symbol>
	<symbol id="location" viewbox="0 0 31 44">
		<path d="M30.525,43.047 C30.035,43.547 29.303,43.687 28.662,43.402 L22.997,40.892 L16.403,43.809 C16.116,43.937 15.808,44.000 15.500,44.000 C15.191,44.000 14.883,43.937 14.597,43.809 L8.013,40.892 L2.339,43.402 C1.697,43.687 0.965,43.547 0.475,43.047 C-0.015,42.547 -0.138,41.817 0.162,41.185 L5.156,30.669 C5.262,30.446 5.439,30.266 5.661,30.156 C6.205,29.885 6.869,30.104 7.142,30.647 C7.307,30.978 7.290,31.353 7.128,31.656 L2.785,40.800 L7.105,38.886 C7.679,38.631 8.338,38.632 8.911,38.887 L15.494,41.803 C15.494,41.803 15.501,41.803 15.504,41.803 C15.505,41.803 15.505,41.803 15.505,41.803 L22.090,38.886 C22.661,38.631 23.319,38.631 23.894,38.886 L28.214,40.800 L23.872,31.655 C23.653,31.248 23.709,30.731 24.046,30.380 C24.431,29.978 25.047,29.930 25.487,30.244 C25.638,30.352 25.762,30.497 25.844,30.668 L30.838,41.186 C31.137,41.817 31.015,42.546 30.525,43.047 ZM27.897,20.283 L18.349,36.210 C17.745,37.219 16.680,37.821 15.500,37.821 C14.320,37.821 13.254,37.219 12.650,36.210 L3.102,20.283 C3.091,20.263 3.079,20.242 3.069,20.221 C2.056,18.253 1.527,16.037 1.540,13.810 C1.563,10.168 3.004,6.727 5.601,4.121 C8.197,1.515 11.643,0.052 15.302,0.001 C19.069,-0.051 22.621,1.370 25.301,4.002 C27.982,6.633 29.459,10.146 29.459,13.894 C29.459,16.123 28.945,18.251 27.931,20.221 C27.920,20.242 27.908,20.263 27.897,20.283 ZM23.752,5.564 C21.537,3.390 18.613,2.196 15.505,2.196 C15.448,2.196 15.390,2.197 15.333,2.198 C8.982,2.285 3.785,7.501 3.747,13.823 C3.735,15.714 4.163,17.519 5.016,19.189 L14.545,35.085 C14.837,35.572 15.310,35.625 15.500,35.625 C15.690,35.625 16.163,35.572 16.455,35.085 L25.983,19.189 C26.826,17.540 27.253,15.759 27.253,13.894 C27.253,10.739 26.009,7.781 23.752,5.564 ZM15.500,18.921 C12.715,18.921 10.449,16.667 10.449,13.894 C10.449,11.122 12.715,8.868 15.500,8.868 C18.285,8.868 20.551,11.122 20.551,13.894 C20.551,16.667 18.285,18.921 15.500,18.921 ZM15.500,11.064 C13.932,11.064 12.655,12.334 12.655,13.894 C12.655,15.456 13.932,16.726 15.500,16.726 C17.069,16.726 18.344,15.456 18.344,13.894 C18.344,12.334 17.069,11.064 15.500,11.064 Z" />
	</symbol>
	<symbol id="mail" viewbox="0 0 37 35">
		<path d="M36.053,34.870 L0.976,34.918 L0.975,34.918 C0.724,34.918 0.484,34.820 0.306,34.646 C0.128,34.472 0.028,34.234 0.028,33.987 L-0.000,13.786 C-0.000,13.780 0.001,13.775 0.001,13.769 C0.005,13.478 0.147,13.194 0.409,13.015 L5.731,9.399 L5.731,5.561 C5.731,5.047 6.155,4.629 6.679,4.629 L12.746,4.629 L17.963,1.083 C18.288,0.862 18.718,0.863 19.042,1.084 L24.227,4.629 L30.320,4.629 C30.843,4.629 31.267,5.047 31.267,5.561 L31.267,9.443 L36.564,13.064 C36.753,13.194 36.880,13.379 36.937,13.583 C36.958,13.629 36.971,13.712 36.971,13.767 L36.999,33.937 C37.000,34.450 36.576,34.869 36.053,34.870 ZM33.226,33.010 L18.514,21.786 L3.748,33.051 L33.226,33.010 ZM5.731,11.662 L2.613,13.782 L5.731,15.903 L5.731,11.662 ZM1.897,15.563 L1.920,32.086 L13.363,23.356 L1.897,15.563 ZM18.500,2.984 L16.079,4.629 L20.907,4.629 L18.500,2.984 ZM29.372,6.493 L7.626,6.493 L7.626,17.190 L14.934,22.158 L17.933,19.870 C18.278,19.607 18.749,19.616 19.081,19.862 C19.086,19.865 19.090,19.867 19.094,19.870 L22.071,22.142 L29.372,17.149 L29.372,6.493 ZM31.267,11.713 L31.267,15.854 L34.295,13.783 L31.267,11.713 ZM35.078,15.517 L23.640,23.338 L35.101,32.082 L35.078,15.517 ZM11.137,15.999 C11.137,15.485 11.561,15.067 12.085,15.067 L24.915,15.067 C25.437,15.067 25.861,15.485 25.861,15.999 C25.861,16.514 25.437,16.932 24.915,16.932 L12.085,16.932 C11.561,16.932 11.137,16.514 11.137,15.999 ZM24.915,12.085 L12.085,12.085 C11.561,12.085 11.137,11.667 11.137,11.153 C11.137,10.639 11.561,10.221 12.085,10.221 L24.915,10.221 C25.437,10.221 25.861,10.639 25.861,11.153 C25.861,11.667 25.437,12.085 24.915,12.085 Z" />
	</symbol>
	<symbol id="phone" viewbox="0 0 37 45">
		<path d="M31.941,22.244 C29.151,22.244 26.881,20.004 26.881,17.249 C26.881,14.495 29.151,12.254 31.941,12.254 C34.730,12.254 37.000,14.495 37.000,17.249 C37.000,20.004 34.730,22.244 31.941,22.244 ZM31.941,14.204 C30.240,14.204 28.857,15.570 28.857,17.249 C28.857,18.929 30.240,20.294 31.941,20.294 C33.641,20.294 35.025,18.929 35.025,17.249 C35.025,15.570 33.641,14.204 31.941,14.204 ZM31.941,10.908 C29.151,10.908 26.881,8.667 26.881,5.913 C26.881,3.158 29.151,0.918 31.941,0.918 C34.730,0.918 37.000,3.158 37.000,5.913 C37.000,8.667 34.730,10.908 31.941,10.908 ZM31.941,2.867 C30.240,2.867 28.857,4.234 28.857,5.913 C28.857,7.592 30.240,8.959 31.941,8.959 C33.641,8.959 35.025,7.592 35.025,5.913 C35.025,4.234 33.641,2.867 31.941,2.867 ZM18.499,44.917 C15.710,44.917 13.440,42.676 13.440,39.922 C13.440,37.168 15.710,34.927 18.499,34.927 C21.289,34.927 23.559,37.168 23.559,39.922 C23.559,42.677 21.289,44.917 18.499,44.917 ZM18.499,36.877 C16.799,36.877 15.415,38.243 15.415,39.922 C15.415,41.601 16.799,42.967 18.499,42.967 C20.200,42.967 21.585,41.601 21.585,39.922 C21.585,38.243 20.200,36.877 18.499,36.877 ZM18.499,33.581 C15.710,33.581 13.440,31.340 13.440,28.586 C13.440,25.831 15.710,23.591 18.499,23.591 C21.289,23.591 23.559,25.831 23.559,28.586 C23.559,31.340 21.289,33.581 18.499,33.581 ZM18.499,25.540 C16.799,25.540 15.415,26.907 15.415,28.586 C15.415,30.265 16.799,31.632 18.499,31.632 C20.200,31.632 21.585,30.265 21.585,28.586 C21.585,26.907 20.200,25.540 18.499,25.540 ZM18.499,22.244 C15.710,22.244 13.440,20.004 13.440,17.249 C13.440,14.495 15.710,12.254 18.499,12.254 C21.289,12.254 23.559,14.495 23.559,17.249 C23.559,20.004 21.289,22.244 18.499,22.244 ZM18.499,14.204 C16.799,14.204 15.415,15.570 15.415,17.249 C15.415,18.929 16.799,20.294 18.499,20.294 C20.200,20.294 21.585,18.929 21.585,17.249 C21.585,15.570 20.200,14.204 18.499,14.204 ZM18.499,10.908 C15.710,10.908 13.440,8.667 13.440,5.913 C13.440,3.158 15.710,0.918 18.499,0.918 C21.289,0.918 23.559,3.158 23.559,5.913 C23.559,8.667 21.289,10.908 18.499,10.908 ZM18.499,2.867 C16.799,2.867 15.415,4.234 15.415,5.913 C15.415,7.592 16.799,8.959 18.499,8.959 C20.200,8.959 21.585,7.592 21.585,5.913 C21.585,4.234 20.200,2.867 18.499,2.867 ZM5.059,33.581 C2.269,33.581 -0.000,31.340 -0.000,28.586 C-0.000,25.831 2.269,23.591 5.059,23.591 C7.849,23.591 10.118,25.831 10.118,28.586 C10.118,31.340 7.849,33.581 5.059,33.581 ZM5.059,25.540 C3.358,25.540 1.974,26.907 1.974,28.586 C1.974,30.265 3.358,31.632 5.059,31.632 C6.760,31.632 8.143,30.265 8.143,28.586 C8.143,26.907 6.760,25.540 5.059,25.540 ZM5.059,22.244 C2.269,22.244 -0.000,20.004 -0.000,17.249 C-0.000,14.495 2.269,12.254 5.059,12.254 C7.849,12.254 10.118,14.495 10.118,17.249 C10.118,20.004 7.849,22.244 5.059,22.244 ZM5.059,14.204 C3.358,14.204 1.974,15.570 1.974,17.249 C1.974,18.929 3.358,20.294 5.059,20.294 C6.760,20.294 8.143,18.929 8.143,17.249 C8.143,15.570 6.760,14.204 5.059,14.204 ZM5.059,10.908 C2.269,10.908 -0.000,8.667 -0.000,5.913 C-0.000,3.158 2.269,0.918 5.059,0.918 C7.849,0.918 10.118,3.158 10.118,5.913 C10.118,8.667 7.849,10.908 5.059,10.908 ZM5.059,2.867 C3.358,2.867 1.974,4.234 1.974,5.913 C1.974,7.592 3.358,8.959 5.059,8.959 C6.760,8.959 8.143,7.592 8.143,5.913 C8.143,4.234 6.760,2.867 5.059,2.867 ZM31.941,23.591 C34.730,23.591 37.000,25.831 37.000,28.586 C37.000,31.340 34.730,33.581 31.941,33.581 C29.151,33.581 26.881,31.340 26.881,28.586 C26.881,25.831 29.151,23.591 31.941,23.591 ZM31.941,31.632 C33.641,31.632 35.025,30.265 35.025,28.586 C35.025,26.907 33.641,25.540 31.941,25.540 C30.240,25.540 28.857,26.907 28.857,28.586 C28.857,30.265 30.240,31.632 31.941,31.632 Z" />
	</symbol>
</svg>
