<svg xmlns="http://www.w3.org/2000/svg">
	<!-- Support icon -->
	<symbol id="support" viewBox="0 0 50.875 53.13">
		<path opacity="0.34" d="M263.984,1044.59a9.815,9.815,0,1,1-9.8,9.82A9.811,9.811,0,0,1,263.984,1044.59Z" transform="translate(-222.906 -1011.09)" />
		<path d="M268.312,1022.67a0.937,0.937,0,0,0-1.592.99,22.684,22.684,0,0,1-32.86,30.14,0.938,0.938,0,0,0-1.125,1.5A24.559,24.559,0,0,0,268.312,1022.67Zm-23.03,21.94h-7.55l4.743-4.75a12.68,12.68,0,0,0,3.744-9.03,5.844,5.844,0,1,0-11.688,0,0.938,0.938,0,0,0,1.875,0,3.969,3.969,0,1,1,7.938,0,10.836,10.836,0,0,1-3.195,7.71l-6.344,6.34a0.949,0.949,0,0,0-.2,1.03,0.93,0.93,0,0,0,.866.57h9.813A0.935,0.935,0,1,0,245.282,1044.61Zm15.039-6.44h-2.6v-1.52a0.938,0.938,0,0,0-1.875,0v1.52h-5.286l5.286-8.85v4.21a0.938,0.938,0,1,0,1.875,0v-7.62a0.957,0.957,0,0,0-.456-0.8,0.94,0.94,0,0,0-1.286.33l-7.875,13.19a0.933,0.933,0,0,0-.011.94,0.951,0.951,0,0,0,.816.48h6.938v5.5a0.938,0.938,0,0,0,1.875,0v-5.5h2.6A0.94,0.94,0,0,0,260.321,1038.17Zm5.33-22.63a0.938,0.938,0,1,0-1.875.04l0.042,1.75a24.556,24.556,0,0,0-33.549,35.85,0.93,0.93,0,0,0,.656.27,0.92,0.92,0,0,0,.669-0.28,0.942,0.942,0,0,0-.013-1.33,22.679,22.679,0,0,1,15.882-38.87,22.745,22.745,0,0,1,15.107,5.77l-1.843.04a0.935,0.935,0,0,0,.022,1.87h0.023l4.06-.09a0.934,0.934,0,0,0,.915-0.96Z" transform="translate(-222.906 -1011.09)" />
	</symbol>
	<!-- Delivery icon -->
	<symbol id="delivery" viewBox="0 0 55 37">
		<path fill-rule="evenodd" fill="rgb(163, 187, 200)" d="M46.781,17.812 L46.781,19.804 C46.781,20.238 46.429,20.590 45.995,20.590 C45.562,20.590 45.210,20.238 45.210,19.804 L45.210,17.812 C45.210,17.377 45.562,17.025 45.995,17.025 C46.429,17.025 46.781,17.377 46.781,17.812 ZM36.757,14.090 L36.757,6.700 C36.757,6.266 37.108,5.914 37.542,5.914 L41.843,5.914 C44.566,5.914 46.781,8.130 46.781,10.855 L46.781,14.090 C46.781,14.525 46.429,14.877 45.995,14.877 L37.542,14.877 C37.108,14.877 36.757,14.525 36.757,14.090 ZM38.328,13.304 L45.210,13.304 L45.210,10.855 C45.210,8.998 43.700,7.487 41.843,7.487 L38.328,7.487 L38.328,13.304 ZM49.137,25.727 L46.355,25.727 C45.977,28.100 43.918,29.919 41.443,29.919 C38.967,29.919 36.909,28.100 36.531,25.727 L25.279,25.727 C24.902,28.100 22.843,29.919 20.368,29.919 C17.892,29.919 15.834,28.100 15.456,25.727 L13.037,25.727 C12.603,25.727 12.252,25.374 12.252,24.940 L12.252,1.354 C12.252,0.920 12.603,0.568 13.037,0.568 L19.083,0.568 C19.517,0.568 19.869,0.920 19.869,1.354 C19.869,1.788 19.517,2.140 19.083,2.140 L13.822,2.140 L13.822,24.154 L15.456,24.154 C15.834,21.780 17.892,19.961 20.368,19.961 C22.843,19.961 24.902,21.780 25.279,24.154 L33.615,24.154 L33.615,23.029 C33.615,22.595 33.967,22.243 34.400,22.243 C34.834,22.243 35.186,22.595 35.186,23.029 L35.186,24.154 L36.531,24.154 C36.909,21.780 38.967,19.961 41.443,19.961 C43.919,19.961 45.977,21.780 46.355,24.154 L48.352,24.154 L48.352,10.855 C48.352,7.264 45.432,4.342 41.843,4.342 L35.186,4.342 L35.186,19.360 C35.186,19.794 34.834,20.146 34.400,20.146 C33.967,20.146 33.615,19.794 33.615,19.360 L33.615,2.140 L22.225,2.140 C21.791,2.140 21.440,1.788 21.440,1.354 C21.440,0.920 21.791,0.568 22.225,0.568 L34.400,0.568 C34.834,0.568 35.186,0.920 35.186,1.354 L35.186,2.769 L41.843,2.769 C46.298,2.769 49.922,6.397 49.922,10.855 L49.922,24.940 C49.922,25.374 49.571,25.727 49.137,25.727 ZM20.368,21.534 C18.491,21.534 16.964,23.062 16.964,24.940 C16.964,26.819 18.491,28.347 20.368,28.347 C22.244,28.347 23.771,26.819 23.771,24.940 C23.771,23.062 22.244,21.534 20.368,21.534 ZM41.443,21.534 C39.567,21.534 38.040,23.061 38.040,24.940 C38.040,24.940 38.040,24.940 38.040,24.940 C38.040,24.941 38.040,24.941 38.040,24.941 C38.040,26.819 39.567,28.347 41.443,28.347 C43.320,28.347 44.847,26.819 44.847,24.940 C44.847,23.062 43.320,21.534 41.443,21.534 ZM41.443,26.967 C40.327,26.967 39.418,26.058 39.418,24.940 C39.418,23.823 40.327,22.914 41.443,22.914 C42.560,22.914 43.468,23.823 43.468,24.940 C43.468,26.058 42.560,26.967 41.443,26.967 ZM41.443,24.486 C41.193,24.486 40.989,24.689 40.989,24.940 C40.989,25.191 41.193,25.395 41.443,25.395 C41.693,25.395 41.897,25.191 41.897,24.940 C41.897,24.689 41.693,24.486 41.443,24.486 ZM20.368,26.967 C19.251,26.967 18.343,26.058 18.343,24.940 C18.343,23.823 19.251,22.914 20.368,22.914 C21.484,22.914 22.392,23.823 22.392,24.940 C22.392,26.058 21.484,26.967 20.368,26.967 ZM20.368,24.486 C20.117,24.486 19.913,24.689 19.913,24.940 C19.913,25.191 20.117,25.395 20.368,25.395 C20.618,25.395 20.822,25.191 20.822,24.940 C20.822,24.689 20.618,24.486 20.368,24.486 ZM10.340,17.912 L4.738,17.912 C4.304,17.912 3.952,17.560 3.952,17.126 C3.952,16.692 4.304,16.340 4.738,16.340 L10.340,16.340 C10.774,16.340 11.125,16.692 11.125,17.126 C11.125,17.560 10.774,17.912 10.340,17.912 ZM9.816,6.906 L3.690,6.906 C3.257,6.906 2.905,6.554 2.905,6.119 C2.905,5.686 3.257,5.334 3.690,5.334 L9.816,5.334 C10.250,5.334 10.602,5.686 10.602,6.119 C10.602,6.554 10.250,6.906 9.816,6.906 ZM9.031,12.409 C9.031,12.843 8.679,13.195 8.246,13.195 L1.596,13.195 C1.162,13.195 0.811,12.843 0.811,12.409 C0.811,11.975 1.162,11.623 1.596,11.623 L8.246,11.623 C8.679,11.623 9.031,11.975 9.031,12.409 ZM1.596,22.629 L4.983,22.629 C5.417,22.629 5.769,22.981 5.769,23.415 C5.769,23.849 5.417,24.202 4.983,24.202 L1.596,24.202 C1.162,24.202 0.811,23.849 0.811,23.415 C0.811,22.981 1.162,22.629 1.596,22.629 ZM7.602,22.629 L8.246,22.629 C8.679,22.629 9.031,22.981 9.031,23.415 C9.031,23.849 8.679,24.202 8.246,24.202 L7.602,24.202 C7.168,24.202 6.816,23.849 6.816,23.415 C6.816,22.981 7.168,22.629 7.602,22.629 Z" />
		<path fill-rule="evenodd" opacity="0.341" fill="rgb(163, 187, 200)" d="M44.750,17.406 C50.169,17.406 54.562,21.792 54.562,27.203 C54.562,32.614 50.169,37.000 44.750,37.000 C39.331,37.000 34.937,32.614 34.937,27.203 C34.937,21.792 39.331,17.406 44.750,17.406 Z" />
	</symbol>
	<!-- Payment icon -->
	<symbol id="payment" viewBox="0 0 54 53">
		<path fill-rule="evenodd" fill="rgb(163, 187, 200)" d="M40.382,26.240 C39.920,26.240 39.546,25.866 39.546,25.404 L39.546,23.363 C38.246,22.997 37.289,21.801 37.289,20.384 C37.289,18.677 38.677,17.289 40.382,17.289 C42.086,17.289 43.474,18.677 43.474,20.384 C43.474,21.801 42.517,22.997 41.217,23.363 L41.217,25.404 C41.217,25.866 40.843,26.240 40.382,26.240 ZM41.802,20.384 C41.802,19.601 41.165,18.962 40.382,18.962 C39.598,18.962 38.961,19.600 38.961,20.384 C38.961,21.169 39.598,21.806 40.382,21.806 C41.165,21.806 41.802,21.169 41.802,20.384 ZM48.534,22.737 C48.996,22.737 49.370,23.111 49.370,23.573 L49.370,26.759 C49.370,28.438 48.005,29.803 46.328,29.803 L34.434,29.803 C32.757,29.803 31.393,28.438 31.393,26.759 L31.393,16.012 C31.393,14.556 32.420,13.335 33.786,13.037 L33.786,7.021 C33.786,3.380 36.745,0.418 40.381,0.418 C44.018,0.418 46.976,3.380 46.976,7.021 L46.976,13.037 C48.343,13.335 49.370,14.555 49.370,16.011 L49.370,20.784 C49.370,21.246 48.996,21.621 48.534,21.621 C48.073,21.621 47.698,21.246 47.698,20.784 L47.698,16.011 C47.698,15.256 47.084,14.640 46.328,14.640 L34.434,14.640 C33.679,14.640 33.065,15.256 33.065,16.011 L33.065,26.759 C33.065,27.515 33.679,28.130 34.434,28.130 L46.328,28.130 C47.084,28.130 47.698,27.515 47.698,26.759 L47.698,23.573 C47.698,23.111 48.073,22.737 48.534,22.737 ZM35.458,12.967 L45.304,12.967 L45.304,7.021 C45.304,4.302 43.096,2.092 40.381,2.092 C37.666,2.092 35.458,4.302 35.458,7.021 L35.458,12.967 ZM5.711,35.228 L13.896,35.228 C14.357,35.228 14.731,35.603 14.731,36.064 C14.731,36.527 14.357,36.901 13.895,36.901 L5.711,36.901 C5.249,36.901 4.875,36.527 4.875,36.064 C4.875,35.603 5.249,35.228 5.711,35.228 ZM5.711,31.236 L19.982,31.236 C20.443,31.236 20.818,31.611 20.818,32.073 C20.818,32.535 20.443,32.910 19.982,32.910 L5.711,32.910 C5.249,32.910 4.875,32.535 4.875,32.073 C4.875,31.611 5.249,31.236 5.711,31.236 ZM29.220,21.355 L15.004,21.355 C14.543,21.355 14.168,20.980 14.168,20.518 C14.168,20.056 14.543,19.681 15.004,19.681 L29.220,19.681 C29.682,19.681 30.056,20.056 30.056,20.518 C30.056,20.980 29.682,21.355 29.220,21.355 ZM29.220,28.497 L1.929,28.497 L1.929,40.417 C1.929,41.610 2.900,42.582 4.092,42.582 L43.427,42.582 C44.619,42.582 45.589,41.610 45.589,40.417 L45.589,32.151 C45.589,31.690 45.964,31.315 46.425,31.315 C46.887,31.315 47.261,31.690 47.261,32.151 L47.261,40.417 C47.261,42.533 45.541,44.254 43.427,44.254 L4.092,44.254 C1.978,44.254 0.258,42.532 0.258,40.417 L0.258,16.797 C0.258,14.680 1.978,12.959 4.092,12.958 L29.220,12.958 C29.682,12.958 30.056,13.333 30.056,13.794 C30.056,14.256 29.682,14.631 29.220,14.631 L4.092,14.631 C2.900,14.631 1.929,15.603 1.929,16.797 L1.929,19.681 L11.798,19.681 C12.259,19.681 12.634,20.056 12.634,20.518 C12.634,20.980 12.259,21.354 11.798,21.354 L1.929,21.354 L1.929,26.824 L29.220,26.824 C29.682,26.824 30.056,27.199 30.056,27.661 C30.056,28.123 29.682,28.497 29.220,28.497 Z" />
		<path fill-rule="evenodd" opacity="0.341" fill="rgb(163, 187, 200)" d="M44.000,33.062 C49.419,33.062 53.812,37.448 53.812,42.859 C53.812,48.270 49.419,52.656 44.000,52.656 C38.581,52.656 34.187,48.270 34.187,42.859 C34.187,37.448 38.581,33.062 44.000,33.062 Z" />
	</symbol>
	<!-- Button-image search -->
	<symbol id="search" viewbox="0 0 20 20">
		<path d="M759.45,1579.8l-4.588-4.59a8.827,8.827,0,0,1-2.651,2.65l4.588,4.59A1.874,1.874,0,0,0,759.45,1579.8Zm-4.45-9.3a7.5,7.5,0,1,0-7.5,7.5A7.5,7.5,0,0,0,755,1570.5Zm-7.5,5.62a5.625,5.625,0,1,1,5.625-5.62A5.628,5.628,0,0,1,747.5,1576.12Zm-4.375-5.62h1.25a3.135,3.135,0,0,1,3.125-3.13v-1.25A4.386,4.386,0,0,0,743.125,1570.5Z" transform="translate(-740 -1563)" />
	</symbol>
	<!-- Button-image cart -->
	<symbol id="cart" viewbox="0 0 22 20">
		<path d="M800.814,1564.63h2.333l3.323,12.04a0.812,0.812,0,0,0,.787.59h10.214a0.821,0.821,0,0,0,.746-0.48l3.717-8.56a0.836,0.836,0,0,0-.068-0.78,0.813,0.813,0,0,0-.678-0.37H809.9a0.82,0.82,0,0,0,0,1.64H819.94l-3.011,6.92h-9.062l-3.323-12.03a0.808,0.808,0,0,0-.787-0.6h-2.943A0.815,0.815,0,0,0,800.814,1564.63Zm5.67,18.37a1.85,1.85,0,1,0-1.845-1.85A1.85,1.85,0,0,0,806.484,1583Zm11.53,0h0.135A1.907,1.907,0,1,0,818.014,1583Z" transform="translate(-800 -1563)" />
	</symbol>
	<!-- Button-image favorites -->
	<symbol id="favorites" viewbox="0 0 22 18">
		<path d="M882.99,1569.82a6.208,6.208,0,0,0-1.849-4.1A5.871,5.871,0,0,0,877,1564c-2.311,0-3.948,1.78-4.827,2.74a2.156,2.156,0,0,1-.156.17l-0.083-.09c-0.8-.92-2.476-2.82-4.938-2.82a5.873,5.873,0,0,0-4.139,1.72,6.208,6.208,0,0,0-1.849,4.1,6.845,6.845,0,0,0,1.271,4.34,29.307,29.307,0,0,0,4.763,4.75c1.705,1.41,3.95,3.09,4.965,3.09,1.032,0,3.269-1.68,4.965-3.09a29.234,29.234,0,0,0,4.746-4.75A6.935,6.935,0,0,0,882.99,1569.82Zm-2.376,3.61a27,27,0,0,1-4.431,4.42c-2.406,2-3.831,2.79-4.172,2.82-0.342-.03-1.77-0.83-4.188-2.84a26.78,26.78,0,0,1-4.437-4.4,5.6,5.6,0,0,1-1.054-3.54,4.807,4.807,0,0,1,4.666-4.57c1.863,0,3.216,1.54,3.943,2.37a1.52,1.52,0,0,0,1.059.76,1.731,1.731,0,0,0,1.151-.81c0.794-.87,2.122-2.32,3.851-2.32a4.807,4.807,0,0,1,4.666,4.57A5.528,5.528,0,0,1,880.614,1573.43Z" transform="translate(-861 -1564)" />
	</symbol>
	<!-- Right arrow -->
	<symbol id="right-arrow" viewbox="0 0 22 9">
		<path fill-rule="evenodd" d="M603.3,2616.47h16.948l-0.1,2.86a0.279,0.279,0,0,0-.084.2,0.3,0.3,0,0,0,.084.21l0.172,0.17a0.276,0.276,0,0,0,.408,0l4.192-4.21a0.283,0.283,0,0,0,.084-0.2,0.307,0.307,0,0,0-.084-0.21l-4.192-4.21a0.3,0.3,0,0,0-.408,0l-0.172.17a0.3,0.3,0,0,0-.084.21,0.3,0.3,0,0,0,.084.2l0.113,2.86H603.292a0.3,0.3,0,0,0-.292.3v1.37A0.288,0.288,0,0,0,603.3,2616.47Z" transform="translate(-603 -2611)" />
	</symbol>
	<symbol id="right-hooks" viewbox="0 0 6 10">
		<path d="M0.472,9.538 C0.591,9.538 0.710,9.492 0.803,9.398 L5.024,5.133 C5.028,5.128 5.032,5.124 5.037,5.120 C5.077,5.077 5.109,5.028 5.132,4.976 C5.132,4.976 5.132,4.977 5.132,4.975 C5.162,4.907 5.177,4.832 5.177,4.758 C5.177,4.757 5.177,4.757 5.177,4.756 C5.177,4.684 5.162,4.611 5.133,4.545 C5.133,4.544 5.133,4.544 5.133,4.544 C5.133,4.544 5.133,4.544 5.133,4.543 C5.109,4.490 5.077,4.440 5.035,4.396 C5.032,4.391 5.028,4.387 5.024,4.384 L0.803,0.119 C0.609,-0.076 0.306,-0.067 0.123,0.138 C0.035,0.237 -0.008,0.364 -0.008,0.490 C-0.008,0.626 0.042,0.762 0.141,0.862 L3.998,4.758 L0.141,8.655 C0.042,8.755 -0.008,8.891 -0.008,9.026 C-0.008,9.153 0.035,9.280 0.123,9.379 C0.218,9.485 0.345,9.538 0.472,9.538 Z" />
	</symbol>
</svg>
